<?xml version="1.0" encoding="UTF-8"?>
<svg version="1.1" xmlns="http://www.w3.org/2000/svg" width="128" height="128">
<path d="M0 0 C42.24 0 84.48 0 128 0 C128 42.24 128 84.48 128 128 C85.76 128 43.52 128 0 128 C0 85.76 0 43.52 0 0 Z " fill="#121212" transform="translate(0,0)"/>
<path d="M0 0 C2.28322844 0.01384806 4.56233226 -0.0202442 6.84521484 -0.05834961 C15.96459606 -0.10664305 24.14983086 0.56986914 31.0871582 7.16088867 C35.84668078 12.63104888 35.60211934 16.64388523 35.60693359 23.57641602 C35.61917969 24.50454102 35.63142578 25.43266602 35.64404297 26.38891602 C35.64597656 27.27579102 35.64791016 28.16266602 35.64990234 29.07641602 C35.65401123 29.89110352 35.65812012 30.70579102 35.66235352 31.54516602 C35.41943359 33.57641602 35.41943359 33.57641602 33.41943359 35.57641602 C31.14208984 35.87719727 31.14208984 35.87719727 28.48193359 35.88891602 C27.60666016 35.90567383 26.73138672 35.92243164 25.82958984 35.93969727 C23.41943359 35.57641602 23.41943359 35.57641602 21.63037109 34.49047852 C19.28810733 30.78819063 19.99052963 26.18390484 19.92333984 21.92407227 C19.32270795 17.93382784 18.55758991 17.01771318 15.41943359 14.57641602 C12.57764402 13.9801903 12.57764402 13.9801903 9.44677734 14.08032227 C8.30015625 14.07967773 7.15353516 14.0790332 5.97216797 14.07836914 C4.77914062 14.09834961 3.58611328 14.11833008 2.35693359 14.13891602 C1.16003906 14.13182617 -0.03685547 14.12473633 -1.27001953 14.11743164 C-7.1873889 13.79547263 -7.1873889 13.79547263 -12.38305664 15.97851562 C-14.82039333 19.23078241 -14.72214126 21.5777372 -14.75756836 25.59912109 C-14.77040359 26.8641597 -14.78323883 28.1291983 -14.79646301 29.43257141 C-14.80463063 30.82035939 -14.81207432 32.20815178 -14.81884766 33.59594727 C-14.82292318 34.29395636 -14.82699871 34.99196545 -14.83119774 35.71112633 C-14.85205862 39.40621012 -14.86635974 43.10125678 -14.87573242 46.79638672 C-14.88679213 50.60975207 -14.92118594 54.42253311 -14.96090412 58.23569202 C-14.98707332 61.17055838 -14.9954245 64.10528564 -14.9990139 67.04025841 C-15.00387981 68.44566478 -15.01549411 69.85106493 -15.0340519 71.25635719 C-15.05844292 73.22593722 -15.05505856 75.19580148 -15.05053711 77.16552734 C-15.05640335 78.285345 -15.06226959 79.40516266 -15.0683136 80.55891418 C-14.46749769 84.27592809 -13.23035878 85.94407592 -10.58056641 88.57641602 C-7.6623715 89.2780261 -7.6623715 89.2780261 -4.42431641 89.09985352 C-3.23708984 89.08825195 -2.04986328 89.07665039 -0.82666016 89.06469727 C1.02765625 89.00862305 1.02765625 89.00862305 2.91943359 88.95141602 C4.15564453 88.93723633 5.39185547 88.92305664 6.66552734 88.90844727 C13.62536984 88.88203918 13.62536984 88.88203918 20.41943359 87.57641602 C21.57861771 83.8824209 21.560926 80.36392831 21.59521484 76.51000977 C21.61839702 75.1239266 21.64251368 73.73785881 21.66748047 72.35180664 C21.70268147 70.17697583 21.73200237 68.00271874 21.74536133 65.82763672 C21.76081409 63.72106819 21.80097565 61.61614446 21.84521484 59.51000977 C21.85979736 58.25244873 21.87437988 56.9948877 21.8894043 55.69921875 C22.41943359 52.57641602 22.41943359 52.57641602 24.23657227 50.67041016 C27.47813406 49.04582248 29.85198432 49.13048486 33.41943359 49.57641602 C35.60717773 51.12768555 35.60717773 51.12768555 37.41943359 53.57641602 C37.80592963 56.25725035 37.95820307 58.51832717 37.91552734 61.19360352 C37.91698257 61.92837921 37.91843781 62.66315491 37.91993713 63.42019653 C37.91828036 64.9718218 37.90674363 66.52346387 37.88598633 68.07495117 C37.85711184 70.43683604 37.86536425 72.79646291 37.87841797 75.15844727 C37.87217728 76.67017683 37.86378375 78.18189934 37.85302734 79.69360352 C37.85596298 80.39379608 37.85889862 81.09398865 37.86192322 81.81539917 C37.75891403 87.23493352 36.45553093 91.31353786 32.80615234 95.36938477 C32.24541016 95.82958008 31.68466797 96.28977539 31.10693359 96.76391602 C30.55392578 97.2318457 30.00091797 97.69977539 29.43115234 98.18188477 C24.13012016 101.85658086 19.66653586 103.04339826 13.27490234 103.04516602 C12.50567947 103.05277954 11.7364566 103.06039307 10.94392395 103.0682373 C9.32275623 103.07899765 7.70151941 103.081908 6.08032227 103.07739258 C3.6237981 103.07642267 1.17042754 103.11803342 -1.28564453 103.16235352 C-11.81622282 103.24221234 -18.31544208 102.05737289 -26.51806641 95.07641602 C-30.35858102 90.42124679 -30.83328978 86.44500827 -30.85522461 80.49462891 C-30.86033554 79.80127945 -30.86544647 79.10792999 -30.87071228 78.39356995 C-30.88456054 76.1119818 -30.8836552 73.83069733 -30.88134766 71.54907227 C-30.88523713 69.9563333 -30.88957232 68.36359537 -30.89433289 66.77085876 C-30.90178477 63.43623489 -30.90151126 60.1017169 -30.89624023 56.76708984 C-30.89044602 52.50223995 -30.90738019 48.2378244 -30.93058491 43.9730463 C-30.94534471 40.68470238 -30.94619092 37.39646254 -30.94307518 34.10809135 C-30.94358723 32.53607765 -30.94880317 30.96405794 -30.9588871 29.39207649 C-30.97127864 27.19029957 -30.9644445 24.98936199 -30.95288086 22.78759766 C-30.95351028 21.53693008 -30.95413971 20.28626251 -30.95478821 18.99769592 C-30.26575419 12.69828145 -27.34661102 8.60107591 -22.58056641 4.57641602 C-15.46943491 -0.23850531 -8.2927901 -0.07015747 0 0 Z " fill="#FAFAFA" transform="translate(60.58056640625,12.423583984375)"/>
<path d="M0 0 C3.2561101 1.89446406 5.3487671 3.30400843 6.73046875 6.90234375 C7.49776352 10.86036925 7.15298259 12.69403482 5.3125 16.375 C2.27673603 19.82100235 0.64523826 20.7075132 -3.8125 21.5 C-8.41690645 20.77774016 -11.11081507 18.60950227 -14 15 C-15.2567532 11.02028153 -15.46817332 9.08419084 -13.8125 5.25 C-9.89094559 0.38186349 -6.34653767 -1.26687124 0 0 Z " fill="#F5F5F5" transform="translate(70,57)"/>
</svg>
